<svg xmlns="http://www.w3.org/2000/svg" version="1.1" xmlns:xlink="http://www.w3.org/1999/xlink" xmlns:svgjs="http://svgjs.dev/svgjs" width="1000" height="1000" viewBox="0 0 1000 1000"><rect width="1000" height="1000" fill="#000000"></rect><g transform="matrix(0.7,0,0,0.7,149.57575766720265,329.9808165789698)"><svg viewBox="0 0 396 193" data-background-color="#f9f9f9" preserveAspectRatio="xMidYMid meet" height="487" width="1000" xmlns="http://www.w3.org/2000/svg" xmlns:xlink="http://www.w3.org/1999/xlink"><g id="tight-bounds" transform="matrix(1,0,0,1,0.24000005173184036,-0.24390613007089712)"><svg viewBox="0 0 395.52 193.4878122601418" height="193.4878122601418" width="395.52"><g><svg viewBox="0 0 395.52 193.4878122601418" height="193.4878122601418" width="395.52"><g transform="matrix(1,0,0,1,0,116.72047052685542)"><svg viewBox="0 0 395.52 76.76734173328637" height="76.76734173328637" width="395.52"><g id="textblocktransform"><svg viewBox="0 0 395.52 76.76734173328637" height="76.76734173328637" width="395.52" id="textblock"><g><svg viewBox="0 0 395.52 45.0194185408667" height="45.0194185408667" width="395.52"><g transform="matrix(1,0,0,1,0,0)"><svg width="395.52" viewBox="2.4000000953674316 -40.95000076293945 364.57000732421875 41.5" height="45.0194185408667" data-palette-color="#030303"><path d="M29.2 0Q28.35 0 27.03-2.02 25.7-4.05 23.25-8.4L23.25-8.4Q22.95-8.95 21.58-11.38 20.2-13.8 19.03-15.55 17.85-17.3 16.95-18.3L16.95-18.3 11.9-12.6 11.9-2.95 16.45-2.45 16.45 0 2.4 0 2.4-2.45 6.55-2.95 6.55-34.05 2.45-34.65 2.45-37.15 16.05-37.15 16.05-34.65 11.9-34.05 11.9-16.55 26.6-34.05 22.4-34.65 22.4-37.15 34.75-37.15 34.75-34.65 30.9-34.05 20.1-21.95Q21.85-20.45 23.83-17.6 25.8-14.75 28.65-10.25L28.65-10.25Q31.1-6.4 32.23-4.78 33.35-3.15 34-3L34-3 36.35-2.45 36.35 0 29.2 0ZM41.55-2.9L41.55-23.9 37.95-24.8 37.95-27.5 45.1-28.4 45.25-28.4 46.3-27.5 46.3-25.4 46.25-24.2Q48.05-25.8 51-27.1 53.95-28.4 56.65-28.4L56.65-28.4Q59.8-28.4 61.52-27.2 63.25-26 63.95-23.53 64.65-21.05 64.65-16.85L64.65-16.85 64.65-2.85 68.15-2.5 68.15 0 56.3 0 56.3-2.45 59.4-2.85 59.4-16.9Q59.4-19.85 59-21.53 58.6-23.2 57.5-24.03 56.4-24.85 54.3-24.85L54.3-24.85Q52.5-24.85 50.45-23.95 48.4-23.05 46.8-21.85L46.8-21.85 46.8-2.9 50.2-2.45 50.2 0 38.4 0 38.4-2.45 41.55-2.9ZM71.75-13.95Q71.75-18.45 73.59-21.75 75.45-25.05 78.47-26.78 81.5-28.5 84.95-28.5L84.95-28.5Q91.25-28.5 94.42-24.5 97.59-20.5 97.59-14L97.59-14Q97.59-9.45 95.75-6.15 93.9-2.85 90.87-1.15 87.84 0.55 84.4 0.55L84.4 0.55Q78.09 0.55 74.92-3.45 71.75-7.45 71.75-13.95L71.75-13.95ZM84.7-2.3Q88.15-2.3 90-5.15 91.84-8 91.84-13.6L91.84-13.6Q91.84-19.15 90.15-22.4 88.45-25.65 84.7-25.65L84.7-25.65Q81.25-25.65 79.37-22.8 77.5-19.95 77.5-14.35L77.5-14.35Q77.5-8.8 79.25-5.55 81-2.3 84.7-2.3L84.7-2.3ZM99.54-25.4L99.54-27.75 111.19-27.75 111.19-25.4 107.39-24.8 111.54-10.1 112.99-3.75 114.44-10.15 119.24-27.75 124.14-27.75 129.09-10.15 130.54-3.7 132.14-10.1 136.19-24.75 132.39-25.4 132.39-27.75 142.54-27.75 142.54-25.4 139.89-24.75 132.14 0.4 127.44 0.4 122.14-17.25 120.84-23.45 119.79-17.25 114.74 0.4 110.09 0.4 102.09-24.8 99.54-25.4ZM155.49-2.95L155.49-14.45 144.24-34 141.24-34.65 141.24-37.15 154.29-37.15 154.29-34.65 150.34-34.05 157.39-20.65 158.99-16.85 160.79-20.65 167.44-34.05 163.34-34.65 163.34-37.15 174.74-37.15 174.74-34.65 171.49-34.05 161.04-14.5 161.04-3 166.64-2.45 166.64 0 150.04 0 150.04-2.45 155.49-2.95ZM176.29-13.95Q176.29-18.45 178.14-21.75 179.99-25.05 183.01-26.78 186.04-28.5 189.49-28.5L189.49-28.5Q195.79-28.5 198.96-24.5 202.14-20.5 202.14-14L202.14-14Q202.14-9.45 200.29-6.15 198.44-2.85 195.41-1.15 192.39 0.55 188.94 0.55L188.94 0.55Q182.64 0.55 179.46-3.45 176.29-7.45 176.29-13.95L176.29-13.95ZM189.24-2.3Q192.69-2.3 194.54-5.15 196.39-8 196.39-13.6L196.39-13.6Q196.39-19.15 194.69-22.4 192.99-25.65 189.24-25.65L189.24-25.65Q185.79-25.65 183.91-22.8 182.04-19.95 182.04-14.35L182.04-14.35Q182.04-8.8 183.79-5.55 185.54-2.3 189.24-2.3L189.24-2.3ZM229.44 0.45Q228.04 0.45 227.36-0.1 226.69-0.65 226.69-1.9L226.69-1.9 226.69-3.6Q225.04-1.95 222.56-0.7 220.09 0.55 217.59 0.55L217.59 0.55Q212.94 0.55 210.99-1.95 209.04-4.45 209.04-10.2L209.04-10.2 209.04-24.7 206.24-25.5 206.24-27.7 213.24-28.35 213.29-28.35 214.24-27.75 214.24-10.6Q214.24-7.7 214.66-6.08 215.09-4.45 216.16-3.68 217.24-2.9 219.29-2.9L219.29-2.9Q221.29-2.9 223.04-3.75 224.79-4.6 226.09-5.75L226.09-5.75 226.09-24.7 222.49-25.5 222.49-27.7 230.09-28.35 230.14-28.35 231.29-27.75 231.29-2.55 234.29-2.55 234.24-0.3Q232.84 0.05 231.81 0.25 230.79 0.45 229.44 0.45L229.44 0.45ZM238.38 0L238.38-2.45 242.13-2.75 242.13-23.9 238.53-24.8 238.53-27.5 245.43-28.4 245.53-28.4 246.63-27.5 246.63-26.6 246.48-22.7 246.63-22.7Q247.13-23.55 248.43-24.9 249.73-26.25 251.78-27.38 253.83-28.5 256.23-28.5L256.23-28.5Q257.23-28.5 257.88-28.25L257.88-28.25 257.88-22.65Q257.53-22.9 256.76-23.13 255.98-23.35 255.03-23.35L255.03-23.35Q250.88-23.35 247.33-20.8L247.33-20.8 247.33-2.8 253.68-2.4 253.68 0 238.38 0ZM261.23 0L261.23-2.45 265.38-2.95 265.38-34.05 261.48-34.7 261.48-37.15 268.03-37.15Q269.43-37.15 271.83-37.35L271.83-37.35Q274.33-37.55 275.73-37.55L275.73-37.55Q283.08-37.55 286.2-35.18 289.33-32.8 289.33-27.7L289.33-27.7Q289.33-24.15 287.36-21.2 285.38-18.25 281.93-17.2L281.93-17.2Q283.53-16.35 284.91-14.28 286.28-12.2 288.28-8.5L288.28-8.5Q289.83-5.7 290.66-4.4 291.48-3.1 292.23-2.95L292.23-2.95 294.18-2.45 294.18 0 287.28 0Q286.48 0 285.48-1.73 284.48-3.45 282.83-7.05L282.83-7.05Q281.03-11 279.7-13.33 278.38-15.65 277.08-16.3L277.08-16.3Q271.73-16.3 270.73-16.35L270.73-16.35 270.73-2.95 275.68-2.45 275.68 0 261.23 0ZM276.68-19Q279.88-19 281.73-21.1 283.58-23.2 283.58-27.35L283.58-27.35Q283.58-31 281.7-32.93 279.83-34.85 275.23-34.85L275.23-34.85Q273.63-34.85 272.03-34.65L272.03-34.65Q271.03-34.55 270.73-34.55L270.73-34.55 270.73-19.05Q271.48-19 273.83-19L273.83-19 276.68-19ZM302.28-32.75Q300.68-32.75 299.88-33.65 299.08-34.55 299.08-35.95L299.08-35.95Q299.08-37.55 300.05-38.6 301.03-39.65 302.73-39.65L302.73-39.65Q304.43-39.65 305.23-38.75 306.03-37.85 306.03-36.45L306.03-36.45Q306.03-34.75 305.05-33.75 304.08-32.75 302.33-32.75L302.33-32.75 302.28-32.75ZM300.28-2.9L300.28-23.9 296.48-24.8 296.48-27.45 304.23-28.4 304.33-28.4 305.48-27.5 305.48-2.85 309.48-2.45 309.48 0 296.23 0 296.23-2.45 300.28-2.9ZM323.82 0.55Q320.82 0.55 318.32-0.95 315.82-2.45 314.35-5.55 312.88-8.65 312.88-13.2L312.88-13.2Q312.88-17.45 314.63-20.95 316.38-24.45 319.65-26.48 322.92-28.5 327.38-28.5L327.38-28.5Q329.92-28.5 332.02-27.95L332.02-27.95 332.02-37.3 326.92-37.9 326.92-40.05 335.92-40.95 336.07-40.95 337.17-40.15 337.17-2.55 340.07-2.55 340.07-0.25Q338.47 0.1 337.3 0.3 336.13 0.5 334.82 0.5L334.82 0.5Q333.52 0.5 332.97 0.05 332.42-0.4 332.42-1.85L332.42-1.85 332.42-3.45Q331.02-1.75 328.75-0.6 326.47 0.55 323.82 0.55L323.82 0.55ZM325.82-3Q327.77-3 329.47-3.88 331.17-4.75 332.02-5.9L332.02-5.9 332.02-24.2Q331.63-24.8 330.15-25.28 328.67-25.75 327.02-25.75L327.02-25.75Q323.13-25.75 320.8-22.78 318.47-19.8 318.47-13.6L318.47-13.6Q318.47-8.2 320.52-5.6 322.57-3 325.82-3L325.82-3ZM356.37 0.55Q350.32 0.55 347.15-3.4 343.97-7.35 343.97-13.95L343.97-13.95Q343.97-18.3 345.62-21.6 347.27-24.9 350.25-26.7 353.22-28.5 357.02-28.5L357.02-28.5Q361.67-28.5 364.25-25.93 366.82-23.35 366.97-18.55L366.97-18.55Q366.97-15.5 366.62-13.9L366.62-13.9 349.42-13.9Q349.52-8.95 351.72-5.93 353.92-2.9 357.97-2.9L357.97-2.9Q359.97-2.9 362.15-3.63 364.32-4.35 365.52-5.35L365.52-5.35 366.47-3.15Q365.02-1.65 362.17-0.55 359.32 0.55 356.37 0.55L356.37 0.55ZM349.47-16.55L361.47-16.55Q361.62-17.6 361.62-18.7L361.62-18.7Q361.57-21.95 360.25-23.83 358.92-25.7 356.07-25.7L356.07-25.7Q353.17-25.7 351.45-23.6 349.72-21.5 349.47-16.55L349.47-16.55Z" opacity="1" transform="matrix(1,0,0,1,0,0)" fill="#ffffff" class="undefined-text-0" data-fill-palette-color="primary" id="text-0"></path></svg></g></svg></g><g transform="matrix(1,0,0,1,75.54432,55.64742279232035)"><svg viewBox="0 0 244.43135999999998 21.119918940966013" height="21.119918940966013" width="244.43135999999998"><g transform="matrix(1,0,0,1,0,0)"><svg width="244.43135999999998" viewBox="2.799999952316284 -35.849998474121094 558.9400024414062 48.29999923706055" height="21.119918940966013" data-palette-color="#030303"><path d="M24.6 0.3L24.6 0.3Q23.7-1.15 22.1-3.43 20.5-5.7 18.48-8.25 16.45-10.8 14.35-13.1 12.25-15.4 10.45-16.95L10.45-16.95 20.65-27.65Q22.5-29.55 22.53-30.63 22.55-31.7 20.85-31.8L20.85-31.8Q20.7-32.3 20.65-32.85 20.6-33.4 20.6-33.95L20.6-33.95Q21.45-33.9 22.85-33.85 24.25-33.8 25.75-33.8L25.75-33.8Q26.75-33.8 27.68-33.83 28.6-33.85 29.43-33.88 30.25-33.9 30.9-33.95L30.9-33.95Q30.9-33.45 30.85-32.85 30.8-32.25 30.6-31.8L30.6-31.8Q29.5-31.75 28.48-31.38 27.45-31 26.28-30.1 25.1-29.2 23.5-27.45L23.5-27.45 14.75-18.15 14.75-19.35Q16.85-17.5 19.53-14.28 22.2-11.05 25.25-7.1L25.25-7.1Q26.5-5.5 27.45-4.45 28.4-3.4 29.63-2.85 30.85-2.3 32.8-2.15L32.8-2.15Q32.8-1.75 32.75-1.15 32.7-0.55 32.55 0L32.55 0Q31.6 0 30.6 0 29.6 0 28.55 0.05 27.5 0.1 26.5 0.15 25.5 0.2 24.6 0.3ZM2.8 0.15L2.8 0.15Q2.8-0.55 2.85-1.07 2.9-1.6 3.05-2L3.05-2Q4.4-2.1 5.15-2.48 5.9-2.85 6.2-3.78 6.5-4.7 6.5-6.35L6.5-6.35 6.5-27.45Q6.5-29.15 6.2-30.05 5.9-30.95 5.15-31.35 4.4-31.75 3.05-31.8L3.05-31.8Q2.9-32.2 2.85-32.75 2.8-33.3 2.8-33.95L2.8-33.95Q3.75-33.9 4.73-33.88 5.7-33.85 6.75-33.83 7.8-33.8 8.85-33.8L8.85-33.8Q9.95-33.8 10.95-33.83 11.95-33.85 12.93-33.88 13.9-33.9 14.9-33.95L14.9-33.95Q14.9-33.3 14.85-32.75 14.8-32.2 14.65-31.8L14.65-31.8Q13.35-31.75 12.58-31.35 11.8-30.95 11.5-30.05 11.2-29.15 11.2-27.45L11.2-27.45 11.2-6.35Q11.2-4.7 11.5-3.78 11.8-2.85 12.58-2.48 13.35-2.1 14.65-2L14.65-2Q14.8-1.6 14.85-1.07 14.9-0.55 14.9 0.15L14.9 0.15Q13.4 0.05 11.85 0.03 10.3 0 8.85 0L8.85 0Q7.4 0 5.75 0.03 4.1 0.05 2.8 0.15ZM43.95-21.15L39.45-10.7 39.45-16.25Q39.45-17.45 39.2-18.2 38.95-18.95 38.15-19.35 37.35-19.75 35.7-19.8L35.7-19.8Q35.7-20.35 35.8-20.8 35.9-21.25 36.15-21.65L36.15-21.65Q37.7-21.75 39.7-22.25 41.7-22.75 42.85-23.35L42.85-23.35Q43.3-23.2 43.62-22.73 43.95-22.25 43.95-21.15L43.95-21.15ZM58.75-14.95L58.75-6.35Q58.75-3.75 59.47-2.88 60.2-2 61.7-2L61.7-2Q61.85-1.55 61.9-1.05 61.95-0.55 61.95 0.15L61.95 0.15Q60.85 0.05 59.45 0.03 58.05 0 56.5 0L56.5 0Q55.5 0 54.4 0.03 53.3 0.05 52.32 0.08 51.35 0.1 50.55 0.15L50.55 0.15Q50.55-0.55 50.6-1.07 50.65-1.6 50.8-2L50.8-2Q52.6-2 53.42-2.93 54.25-3.85 54.25-6.35L54.25-6.35 54.25-13.95Q54.25-17.5 52.95-18.78 51.65-20.05 49.6-20.05L49.6-20.05Q48.3-20.05 47-19.23 45.7-18.4 44.82-16.57 43.95-14.75 43.95-11.7L43.95-11.7 43.95-6.35Q43.95-3.85 44.7-2.93 45.45-2 47.4-2L47.4-2Q47.55-1.55 47.6-1.05 47.65-0.55 47.65 0.15L47.65 0.15Q46.95 0.1 45.95 0.08 44.95 0.05 43.85 0.03 42.75 0 41.7 0L41.7 0Q40.7 0 39.6 0.03 38.5 0.05 37.5 0.08 36.5 0.1 35.75 0.15L35.75 0.15Q35.75-0.55 35.8-1.07 35.85-1.6 36-2L36-2Q37.95-2 38.7-2.93 39.45-3.85 39.45-6.35L39.45-6.35 39.45-16.25 43.95-21.15Q43.95-20.55 43.9-19.8 43.85-19.05 43.6-18.2L43.6-18.2Q43.75-18.45 43.9-18.78 44.05-19.1 44.35-19.5L44.35-19.5Q45.2-20.65 47.07-21.88 48.95-23.1 51.6-23.1L51.6-23.1Q53.5-23.1 55.12-22.33 56.75-21.55 57.75-19.78 58.75-18 58.75-14.95L58.75-14.95ZM77.05 0.45L77.05 0.45Q73.65 0.45 71.09-1.03 68.55-2.5 67.15-5.18 65.75-7.85 65.75-11.45L65.75-11.45Q65.75-14.85 67.2-17.55 68.65-20.25 71.2-21.8 73.75-23.35 77.05-23.35L77.05-23.35Q80.59-23.35 83.12-21.85 85.65-20.35 87-17.68 88.34-15 88.34-11.45L88.34-11.45Q88.34-8.05 86.92-5.35 85.5-2.65 82.97-1.1 80.45 0.45 77.05 0.45ZM77.45-1.95L77.45-1.95Q80.45-1.95 81.9-4.42 83.34-6.9 83.34-10.85L83.34-10.85Q83.34-13.95 82.42-16.23 81.5-18.5 79.95-19.73 78.4-20.95 76.55-20.95L76.55-20.95Q73.65-20.95 72.22-18.6 70.8-16.25 70.8-12.5L70.8-12.5Q70.8-9.15 71.62-6.78 72.45-4.4 73.95-3.18 75.45-1.95 77.45-1.95ZM101.09 0.45L101.09 0.45Q100.24-1.95 99.42-4.28 98.59-6.6 97.72-8.88 96.84-11.15 95.97-13.4 95.09-15.65 94.19-17.9L94.19-17.9Q93.64-19.3 93.07-19.9 92.49-20.5 91.39-20.85L91.39-20.85Q91.19-21.35 91.14-21.95 91.09-22.55 91.09-23L91.09-23Q92.09-22.95 93.22-22.93 94.34-22.9 95.99-22.9L95.99-22.9Q97.64-22.9 98.94-22.95 100.24-23 101.49-23.05L101.49-23.05Q101.49-22.55 101.44-21.9 101.39-21.25 101.24-20.85L101.24-20.85Q99.84-20.7 99.27-20.35 98.69-20 98.72-19.4 98.74-18.8 99.09-17.85L99.09-17.85Q100.24-14.95 101.49-11.5 102.74-8.05 103.74-5.1L103.74-5.1 103.09-5.05 109.99-22.9Q110.39-23 110.94-23.05 111.49-23.1 111.99-23.1L111.99-23.1Q113.64-19.3 115.62-14.5 117.59-9.7 119.44-4.95L119.44-4.95 118.74-4.95 121.89-14.4Q122.69-16.85 122.62-18.18 122.54-19.5 121.84-20.1 121.14-20.7 119.89-20.85L119.89-20.85Q119.69-21.4 119.57-21.98 119.44-22.55 119.44-23.05L119.44-23.05Q120.39-23 121.59-22.95 122.79-22.9 123.89-22.9L123.89-22.9Q125.24-22.9 126.34-22.95 127.44-23 128.29-23.05L128.29-23.05Q128.29-22.4 128.22-21.9 128.14-21.4 127.89-20.85L127.89-20.85Q127.14-20.65 126.62-20.13 126.09-19.6 125.57-18.3 125.04-17 124.19-14.55L124.19-14.55 119.14 0Q118.84 0.15 118.49 0.25 118.14 0.35 117.74 0.4 117.34 0.45 116.84 0.45L116.84 0.45Q115.69-2.55 114.37-5.73 113.04-8.9 111.74-12 110.44-15.1 109.19-17.85L109.19-17.85 110.74-18.7 103.29 0Q103.04 0.15 102.74 0.25 102.44 0.35 102.04 0.4 101.64 0.45 101.09 0.45ZM156.19 0.45L156.19 0.45Q155.64 0.2 155.31-0.45 154.99-1.1 154.99-2.5L154.99-2.5Q154.99-2.95 155.04-3.58 155.09-4.2 155.24-4.7L155.24-4.7 155.34-4.7Q155.19-3.9 154.66-2.98 154.14-2.05 153.29-1.35L153.29-1.35Q152.44-0.6 151.14-0.13 149.84 0.35 147.99 0.35L147.99 0.35Q144.84 0.35 143.19-1.07 141.54-2.5 141.54-4.95L141.54-4.95Q141.54-6.9 142.46-8.28 143.39-9.65 144.86-10.58 146.34-11.5 148.06-12.05 149.79-12.6 151.44-12.9 153.09-13.2 154.34-13.4L154.34-13.4Q154.34-15.45 154.26-16.6 154.19-17.75 153.96-18.43 153.74-19.1 153.29-19.6L153.29-19.6Q152.69-20.35 151.91-20.73 151.14-21.1 150.19-21.1L150.19-21.1Q148.54-21.1 147.59-20.08 146.64-19.05 146.24-17.7 145.84-16.35 145.79-15.3L145.79-15.3Q145.24-15.3 144.41-15.38 143.59-15.45 143.19-15.65L143.19-15.65Q143.29-16.9 143.24-18.45 143.19-20 142.94-21.1L142.94-21.1Q144.99-22.15 147.26-22.75 149.54-23.35 151.44-23.35L151.44-23.35Q153.29-23.35 154.61-22.83 155.94-22.3 156.74-21.45L156.74-21.45Q158.04-20.2 158.44-18.18 158.84-16.15 158.84-12.8L158.84-12.8 158.84-7.3Q158.84-5.9 159.06-5.08 159.29-4.25 159.94-3.88 160.59-3.5 161.94-3.4L161.94-3.4Q161.94-2.9 161.89-2.27 161.84-1.65 161.64-1.1L161.64-1.1Q160.39-1.05 158.86-0.63 157.34-0.2 156.19 0.45ZM149.39-2.4L149.39-2.4Q150.49-2.4 151.64-3.13 152.79-3.85 153.56-5.4 154.34-6.95 154.34-9.45L154.34-9.45 154.34-11.35Q153.09-11.2 151.69-10.93 150.29-10.65 149.09-10.1 147.89-9.55 147.14-8.58 146.39-7.6 146.39-5.95L146.39-5.95Q146.39-4.1 147.29-3.25 148.19-2.4 149.39-2.4ZM172.69-2.7L171.99-4.3Q172.99-3.25 174.16-2.55 175.34-1.85 177.09-1.85L177.09-1.85Q178.14-1.85 179.36-2.27 180.59-2.7 181.74-3.75 182.89-4.8 183.61-6.7 184.34-8.6 184.34-11.6L184.34-11.6Q184.34-14.8 183.39-16.68 182.44-18.55 181.14-19.38 179.84-20.2 178.74-20.2L178.74-20.2Q177.29-20.2 175.89-19.28 174.49-18.35 173.59-16.25 172.69-14.15 172.69-10.65L172.69-10.65 172.69-2.7ZM176.84 0.45L176.84 0.45Q174.59 0.45 172.74 0 170.89-0.45 169.49-1.23 168.09-2 167.09-2.95L167.09-2.95Q167.64-3.65 167.91-5 168.19-6.35 168.19-9.3L168.19-9.3 168.19-28.75Q168.19-29.95 167.96-30.73 167.74-31.5 166.94-31.9 166.14-32.3 164.44-32.3L164.44-32.3Q164.44-32.85 164.54-33.3 164.64-33.75 164.89-34.15L164.89-34.15Q165.64-34.15 167.01-34.4 168.39-34.65 169.69-35.05 170.99-35.45 171.59-35.85L171.59-35.85Q172.04-35.7 172.36-35.25 172.69-34.8 172.69-33.85L172.69-33.85 172.69-20.8Q172.69-19.9 172.59-19.28 172.49-18.65 172.39-18.1L172.39-18.1 172.19-13.65 171.24-15.95Q171.89-17.55 172.36-18.4 172.84-19.25 173.09-19.65L173.09-19.65Q173.54-20.4 174.51-21.28 175.49-22.15 176.89-22.75 178.29-23.35 179.94-23.35L179.94-23.35Q182.89-23.35 184.96-22.18 187.04-21 188.16-18.55 189.29-16.1 189.29-12.25L189.29-12.25Q189.29-8.75 187.74-5.88 186.19-3 183.39-1.28 180.59 0.45 176.84 0.45ZM204.58 0.45L204.58 0.45Q201.18 0.45 198.63-1.03 196.08-2.5 194.68-5.18 193.28-7.85 193.28-11.45L193.28-11.45Q193.28-14.85 194.73-17.55 196.18-20.25 198.73-21.8 201.28-23.35 204.58-23.35L204.58-23.35Q208.13-23.35 210.66-21.85 213.18-20.35 214.53-17.68 215.88-15 215.88-11.45L215.88-11.45Q215.88-8.05 214.46-5.35 213.03-2.65 210.51-1.1 207.98 0.45 204.58 0.45ZM204.98-1.95L204.98-1.95Q207.98-1.95 209.43-4.42 210.88-6.9 210.88-10.85L210.88-10.85Q210.88-13.95 209.96-16.23 209.03-18.5 207.48-19.73 205.93-20.95 204.08-20.95L204.08-20.95Q201.18-20.95 199.76-18.6 198.33-16.25 198.33-12.5L198.33-12.5Q198.33-9.15 199.16-6.78 199.98-4.4 201.48-3.18 202.98-1.95 204.98-1.95ZM229.13 0.2L229.13 0.2Q225.78 0.2 223.88-1.75 221.98-3.7 221.98-8.7L221.98-8.7 221.98-16.25Q221.98-18 221.48-18.88 220.98-19.75 218.68-19.8L218.68-19.8Q218.68-20.35 218.76-20.78 218.83-21.2 219.03-21.65L219.03-21.65Q220.58-21.75 222.41-22.25 224.23-22.75 225.38-23.35L225.38-23.35Q225.83-23.2 226.16-22.73 226.48-22.25 226.48-21.15L226.48-21.15 226.48-9.8Q226.48-6.45 227.41-4.65 228.33-2.85 230.63-2.85L230.63-2.85Q233.13-2.85 234.81-4.95 236.48-7.05 236.48-11.4L236.48-11.4 236.48-16.5Q236.48-18.25 235.86-19.13 235.23-20 232.73-20.05L232.73-20.05Q232.73-20.6 232.78-21.03 232.83-21.45 233.08-21.9L233.08-21.9Q235.03-22 236.91-22.43 238.78-22.85 239.88-23.35L239.88-23.35Q240.33-23.2 240.66-22.73 240.98-22.25 240.98-21.15L240.98-21.15 240.98-6.65 237.08-4.8Q236.83-4.15 236.38-3.53 235.93-2.9 235.38-2.35L235.38-2.35Q234.08-1.05 232.63-0.43 231.18 0.2 229.13 0.2ZM238.08 0.45L238.08 0.45Q237.58 0.2 237.21-0.28 236.83-0.75 236.83-2.45L236.83-2.45Q236.83-3 236.91-4 236.98-5 237.33-6.8L237.33-6.8 240.98-6.8Q240.98-5.65 241.18-4.88 241.38-4.1 242.06-3.75 242.73-3.4 244.08-3.4L244.08-3.4Q244.08-2.9 244.03-2.27 243.98-1.65 243.78-1.1L243.78-1.1Q242.53-1.05 240.88-0.63 239.23-0.2 238.08 0.45ZM256.48 0.45L256.48 0.45Q253.53 0.45 252.1-1.07 250.68-2.6 250.68-6L250.68-6 250.68-19.55Q249.93-19.8 249.13-19.98 248.33-20.15 247.08-20.2L247.08-20.2Q247.08-20.85 247.18-21.33 247.28-21.8 247.53-22.4L247.53-22.4 250.68-22.4 250.68-29Q251.68-29.25 252.65-29.8 253.63-30.35 254.38-31L254.38-31Q254.88-30.8 255.03-30.4 255.18-30 255.18-28.4L255.18-28.4 255.18-22.4 261.68-22.4Q261.68-21.9 261.58-21.33 261.48-20.75 261.23-20.2L261.23-20.2Q259.43-20.15 257.93-19.98 256.43-19.8 255.18-19.55L255.18-19.55 255.18-7.05Q255.18-5.4 255.53-4.33 255.88-3.25 256.53-2.75 257.18-2.25 258.08-2.25L258.08-2.25Q259.13-2.25 259.9-2.55 260.68-2.85 261.38-3.45L261.38-3.45Q262.03-2.7 262.13-1.8L262.13-1.8Q261.33-0.85 259.7-0.2 258.08 0.45 256.48 0.45ZM289.12-6.2L292.57-14.9Q293.87-18.1 293.2-19.28 292.52-20.45 290.32-20.85L290.32-20.85Q290.12-21.4 290.05-21.93 289.97-22.45 289.97-23L289.97-23Q291.12-22.95 292.32-22.93 293.52-22.9 294.92-22.9L294.92-22.9Q296.32-22.9 297.57-22.93 298.82-22.95 299.92-23L299.92-23Q299.92-22.5 299.9-21.95 299.87-21.4 299.62-20.85L299.62-20.85Q298.72-20.65 298.1-20.15 297.47-19.65 296.92-18.6 296.37-17.55 295.57-15.65L295.57-15.65 288.22 1.85Q286.82 5.25 285.7 7.35 284.57 9.45 283.6 10.55 282.62 11.65 281.65 12.05 280.67 12.45 279.52 12.45L279.52 12.45Q278.02 12.45 277.15 12.05 276.27 11.65 275.77 11.3L275.77 11.3Q275.57 10.55 275.62 9.43 275.67 8.3 275.82 7.65L275.82 7.65Q276.67 7.8 277.47 7.88 278.27 7.95 279.02 7.95L279.02 7.95Q280.47 7.95 281.8 7.25 283.12 6.55 284.07 5L284.07 5Q284.77 3.95 286.17 0.88 287.57-2.2 289.12-6.2L289.12-6.2ZM288.97-4.25L286.72 1.05Q285.52-1.6 284.2-4.53 282.87-7.45 281.67-10.15 280.47-12.85 279.57-14.7L279.57-14.7Q278.42-17.2 277.65-18.45 276.87-19.7 276.2-20.2 275.52-20.7 274.67-20.85L274.67-20.85Q274.52-21.3 274.45-21.85 274.37-22.4 274.37-23L274.37-23Q275.82-22.95 277.27-22.93 278.72-22.9 280.02-22.9L280.02-22.9Q281.32-22.9 283.22-22.93 285.12-22.95 286.67-23L286.67-23Q286.67-22.35 286.6-21.83 286.52-21.3 286.32-20.85L286.32-20.85Q283.62-20.4 283.22-19.28 282.82-18.15 284.17-15.35L284.17-15.35Q284.87-13.9 285.77-11.88 286.67-9.85 287.52-7.83 288.37-5.8 288.97-4.25L288.97-4.25ZM313.97 0.45L313.97 0.45Q310.57 0.45 308.02-1.03 305.47-2.5 304.07-5.18 302.67-7.85 302.67-11.45L302.67-11.45Q302.67-14.85 304.12-17.55 305.57-20.25 308.12-21.8 310.67-23.35 313.97-23.35L313.97-23.35Q317.52-23.35 320.05-21.85 322.57-20.35 323.92-17.68 325.27-15 325.27-11.45L325.27-11.45Q325.27-8.05 323.85-5.35 322.42-2.65 319.9-1.1 317.37 0.45 313.97 0.45ZM314.37-1.95L314.37-1.95Q317.37-1.95 318.82-4.42 320.27-6.9 320.27-10.85L320.27-10.85Q320.27-13.95 319.35-16.23 318.42-18.5 316.87-19.73 315.32-20.95 313.47-20.95L313.47-20.95Q310.57-20.95 309.15-18.6 307.72-16.25 307.72-12.5L307.72-12.5Q307.72-9.15 308.55-6.78 309.37-4.4 310.87-3.18 312.37-1.95 314.37-1.95ZM338.52 0.2L338.52 0.2Q335.17 0.2 333.27-1.75 331.37-3.7 331.37-8.7L331.37-8.7 331.37-16.25Q331.37-18 330.87-18.88 330.37-19.75 328.07-19.8L328.07-19.8Q328.07-20.35 328.14-20.78 328.22-21.2 328.42-21.65L328.42-21.65Q329.97-21.75 331.79-22.25 333.62-22.75 334.77-23.35L334.77-23.35Q335.22-23.2 335.54-22.73 335.87-22.25 335.87-21.15L335.87-21.15 335.87-9.8Q335.87-6.45 336.79-4.65 337.72-2.85 340.02-2.85L340.02-2.85Q342.52-2.85 344.19-4.95 345.87-7.05 345.87-11.4L345.87-11.4 345.87-16.5Q345.87-18.25 345.24-19.13 344.62-20 342.12-20.05L342.12-20.05Q342.12-20.6 342.17-21.03 342.22-21.45 342.47-21.9L342.47-21.9Q344.42-22 346.29-22.43 348.17-22.85 349.27-23.35L349.27-23.35Q349.72-23.2 350.04-22.73 350.37-22.25 350.37-21.15L350.37-21.15 350.37-6.65 346.47-4.8Q346.22-4.15 345.77-3.53 345.32-2.9 344.77-2.35L344.77-2.35Q343.47-1.05 342.02-0.43 340.57 0.2 338.52 0.2ZM347.47 0.45L347.47 0.45Q346.97 0.2 346.59-0.28 346.22-0.75 346.22-2.45L346.22-2.45Q346.22-3 346.29-4 346.37-5 346.72-6.8L346.72-6.8 350.37-6.8Q350.37-5.65 350.57-4.88 350.77-4.1 351.44-3.75 352.12-3.4 353.47-3.4L353.47-3.4Q353.47-2.9 353.42-2.27 353.37-1.65 353.17-1.1L353.17-1.1Q351.92-1.05 350.27-0.63 348.62-0.2 347.47 0.45ZM365.52-11.35L365.52-7.35Q365.52-5.2 365.97-4.08 366.42-2.95 367.42-2.53 368.42-2.1 369.97-2L369.97-2Q370.12-1.6 370.17-1.07 370.22-0.55 370.22 0.15L370.22 0.15Q369.47 0.1 368.44 0.08 367.42 0.05 366.27 0.03 365.12 0 363.92 0L363.92 0Q362.17 0 360.24 0.03 358.32 0.05 357.32 0.15L357.32 0.15Q357.32-0.55 357.37-1.07 357.42-1.6 357.57-2L357.57-2Q358.92-2.1 359.67-2.48 360.42-2.85 360.72-3.78 361.02-4.7 361.02-6.35L361.02-6.35 361.02-11.35 365.52-11.35ZM364.67-15.35L365.52-14.65 365.52-10.7 361.02-10.7 361.02-16.25 365.52-21.15Q365.52-19.45 365.22-18.07 364.92-16.7 364.67-15.35L364.67-15.35ZM365.52-12.15L364.42-15.05Q364.97-16.45 365.27-17.35 365.57-18.25 365.92-18.85L365.92-18.85Q367.02-20.6 368.52-21.75 370.02-22.9 371.97-22.9L371.97-22.9Q373.87-22.9 375.42-21.7L375.42-21.7Q375.32-20.9 375.22-19.85 375.12-18.8 375.09-17.75 375.07-16.7 375.07-15.8L375.07-15.8Q374.62-15.65 373.84-15.5 373.07-15.35 372.22-15.35L372.22-15.35Q372.12-17.75 371.44-18.5 370.77-19.25 369.77-19.25L369.77-19.25Q368.92-19.25 367.92-18.28 366.92-17.3 366.22-15.7 365.52-14.1 365.52-12.15L365.52-12.15ZM365.52-21.15L361.02-10.7 361.02-16.25Q361.02-17.45 360.77-18.2 360.52-18.95 359.72-19.35 358.92-19.75 357.27-19.8L357.27-19.8Q357.27-20.35 357.37-20.8 357.47-21.25 357.72-21.65L357.72-21.65Q359.27-21.75 361.27-22.25 363.27-22.75 364.42-23.35L364.42-23.35Q364.87-23.2 365.19-22.73 365.52-22.25 365.52-21.15L365.52-21.15ZM398.56 0.45L398.56 0.45Q398.16-0.55 397.34-2.48 396.51-4.4 395.49-6.75 394.46-9.1 393.44-11.38 392.41-13.65 391.64-15.38 390.86-17.1 390.56-17.75L390.56-17.75Q389.91-19.1 389.46-19.73 389.01-20.35 388.59-20.6 388.16-20.85 387.46-20.9L387.46-20.9Q387.26-21.55 387.21-21.95 387.16-22.35 387.16-23.05L387.16-23.05Q388.21-23 389.54-22.95 390.86-22.9 392.41-22.9L392.41-22.9Q393.46-22.9 394.59-22.93 395.71-22.95 396.74-22.98 397.76-23 398.56-23.05L398.56-23.05Q398.56-22.5 398.46-21.98 398.36-21.45 398.21-21L398.21-21Q395.71-20.8 395.26-20.2 394.81-19.6 395.76-17.55L395.76-17.55Q396.11-16.8 396.76-15.28 397.41-13.75 398.21-11.8 399.01-9.85 399.81-7.88 400.61-5.9 401.21-4.3L401.21-4.3 400.66-4.3Q401.96-7.55 403.01-10.15 404.06-12.75 404.96-15L404.96-15Q406.26-18.25 405.74-19.53 405.21-20.8 403.31-20.95L403.31-20.95Q403.06-21.45 402.91-22 402.76-22.55 402.76-23.05L402.76-23.05Q403.76-23 405.01-22.95 406.26-22.9 407.41-22.9L407.41-22.9Q408.56-22.9 409.86-22.95 411.16-23 412.06-23.05L412.06-23.05Q412.06-22.4 411.96-21.88 411.86-21.35 411.61-20.9L411.61-20.9Q410.81-20.75 410.21-20.2 409.61-19.65 409.04-18.55 408.46-17.45 407.61-15.45L407.61-15.45 400.86 0Q400.41 0.2 399.79 0.33 399.16 0.45 398.56 0.45ZM425.41 0.45L425.41 0.45Q421.86 0.45 419.51-1.15 417.16-2.75 415.98-5.48 414.81-8.2 414.81-11.45L414.81-11.45Q414.81-14.65 416.06-17.35 417.31-20.05 419.63-21.7 421.96-23.35 425.16-23.35L425.16-23.35Q428.41-23.35 430.38-21.95 432.36-20.55 433.33-18.2 434.31-15.85 434.51-13L434.51-13Q434.31-12 433.76-11.3L433.76-11.3Q432.91-11.3 431.21-11.3 429.51-11.3 427.36-11.28 425.21-11.25 422.96-11.18 420.71-11.1 418.71-11L418.71-11 418.71-13.55 429.31-13.55Q429.31-16.85 428.11-18.9 426.91-20.95 424.71-20.95L424.71-20.95Q423.51-20.95 422.36-20.23 421.21-19.5 420.46-17.68 419.71-15.85 419.71-12.5L419.71-12.5Q419.71-10.05 420.33-7.73 420.96-5.4 422.53-3.88 424.11-2.35 427.01-2.35L427.01-2.35Q428.66-2.35 430.26-3.1 431.86-3.85 433.11-5.25L433.11-5.25Q433.51-5.05 433.88-4.58 434.26-4.1 434.31-3.7L434.31-3.7Q432.61-1.45 430.38-0.5 428.16 0.45 425.41 0.45ZM461.31-14.95L461.31-6.35Q461.31-3.75 462.03-2.88 462.76-2 464.26-2L464.26-2Q464.41-1.55 464.46-1.05 464.51-0.55 464.51 0.15L464.51 0.15Q463.41 0.05 462.01 0.03 460.61 0 459.06 0L459.06 0Q458.06 0 456.96 0.03 455.86 0.05 454.88 0.08 453.91 0.1 453.11 0.15L453.11 0.15Q453.11-0.55 453.16-1.07 453.21-1.6 453.36-2L453.36-2Q455.16-2 455.98-2.93 456.81-3.85 456.81-6.35L456.81-6.35 456.81-13.95Q456.81-17.5 455.51-18.78 454.21-20.05 452.16-20.05L452.16-20.05Q450.86-20.05 449.56-19.23 448.26-18.4 447.38-16.57 446.51-14.75 446.51-11.7L446.51-11.7 446.51-6.35Q446.51-3.85 447.26-2.93 448.01-2 449.96-2L449.96-2Q450.11-1.55 450.16-1.05 450.21-0.55 450.21 0.15L450.21 0.15Q449.51 0.1 448.51 0.08 447.51 0.05 446.41 0.03 445.31 0 444.26 0L444.26 0Q443.26 0 442.16 0.03 441.06 0.05 440.06 0.08 439.06 0.1 438.31 0.15L438.31 0.15Q438.31-0.55 438.36-1.07 438.41-1.6 438.56-2L438.56-2Q440.51-2 441.26-2.93 442.01-3.85 442.01-6.35L442.01-6.35 442.01-16.25 446.51-21.15Q446.51-20.55 446.46-19.8 446.41-19.05 446.16-18.2L446.16-18.2Q446.31-18.45 446.46-18.78 446.61-19.1 446.91-19.5L446.91-19.5Q447.76-20.65 449.63-21.88 451.51-23.1 454.16-23.1L454.16-23.1Q456.06-23.1 457.68-22.33 459.31-21.55 460.31-19.78 461.31-18 461.31-14.95L461.31-14.95ZM442.01-26.9L442.01-28.75Q442.01-29.95 441.78-30.73 441.56-31.5 440.76-31.9 439.96-32.3 438.26-32.3L438.26-32.3Q438.26-32.85 438.36-33.3 438.46-33.75 438.71-34.15L438.71-34.15Q439.46-34.15 440.83-34.4 442.21-34.65 443.51-35.05 444.81-35.45 445.41-35.85L445.41-35.85Q445.86-35.7 446.18-35.25 446.51-34.8 446.51-33.85L446.51-33.85 446.51-26.9 442.01-26.9ZM442.01-15.5L442.01-28.75 446.51-28.75 446.51-21.15 442.01-15.5ZM468.15 0.15L468.15 0.15Q468.15-0.35 468.2-0.93 468.25-1.5 468.4-2L468.4-2Q470.4-2 471.13-2.93 471.85-3.85 471.85-6.35L471.85-6.35 471.85-16.25Q471.85-17.45 471.63-18.23 471.4-19 470.6-19.4 469.8-19.8 468.1-19.8L468.1-19.8Q468.1-20.35 468.2-20.8 468.3-21.25 468.55-21.65L468.55-21.65Q469.3-21.65 470.68-21.9 472.05-22.15 473.35-22.55 474.65-22.95 475.25-23.35L475.25-23.35Q475.7-23.2 476.03-22.75 476.35-22.3 476.35-21.35L476.35-21.35 476.35-6.35Q476.35-3.85 477.03-2.93 477.7-2 479.3-2L479.3-2Q479.45-1.5 479.5-0.85 479.55-0.2 479.55 0.15L479.55 0.15Q478.7 0.1 477.75 0.08 476.8 0.05 475.83 0.03 474.85 0 473.9 0L473.9 0Q472.95 0 471.93 0.03 470.9 0.05 469.95 0.08 469 0.1 468.15 0.15ZM473.7-29L473.7-29Q472.45-29 471.6-29.85 470.75-30.7 470.75-31.9L470.75-31.9Q470.75-33.25 471.65-34.1 472.55-34.95 473.7-34.95L473.7-34.95Q475.05-34.95 475.88-34.1 476.7-33.25 476.7-31.9L476.7-31.9Q476.7-30.75 475.83-29.88 474.95-29 473.7-29ZM501.95-3.9L501.95-3.9Q500.6-1.75 498.6-0.65 496.6 0.45 493.75 0.45L493.75 0.45Q491.2 0.45 488.83-0.88 486.45-2.2 484.9-4.83 483.35-7.45 483.35-11.35L483.35-11.35Q483.35-14.35 484.55-17.1 485.75-19.85 488.08-21.6 490.4-23.35 493.75-23.35L493.75-23.35Q496.05-23.35 497.98-22.8 499.9-22.25 501.3-21.1L501.3-21.1Q501.1-19.65 501.03-18.25 500.95-16.85 500.95-15.4L500.95-15.4Q500.55-15.2 499.88-15.1 499.2-15 498.65-15L498.65-15Q498.35-17.9 496.95-19.45 495.55-21 493.35-21L493.35-21Q490.9-21 489.45-18.7 488-16.4 488-12.1L488-12.1Q488-9.6 488.83-7.38 489.65-5.15 491.25-3.78 492.85-2.4 495.15-2.4L495.15-2.4Q496.75-2.4 498.18-3.15 499.6-3.9 500.7-5.3L500.7-5.3Q501.1-5.1 501.45-4.73 501.8-4.35 501.95-3.9ZM505.5 0.15L505.5 0.15Q505.5-0.35 505.55-0.93 505.6-1.5 505.75-2L505.75-2Q507.75-2 508.47-2.93 509.2-3.85 509.2-6.35L509.2-6.35 509.2-28.75Q509.2-29.95 508.97-30.73 508.75-31.5 507.95-31.9 507.15-32.3 505.45-32.3L505.45-32.3Q505.45-32.85 505.55-33.3 505.65-33.75 505.9-34.15L505.9-34.15Q506.65-34.15 508.02-34.4 509.4-34.65 510.7-35.05 512-35.45 512.6-35.85L512.6-35.85Q513.05-35.7 513.37-35.25 513.7-34.8 513.7-33.85L513.7-33.85 513.7-6.35Q513.7-3.85 514.37-2.93 515.05-2 516.65-2L516.65-2Q516.8-1.5 516.85-0.85 516.9-0.2 516.9 0.15L516.9 0.15Q516.05 0.1 515.1 0.08 514.15 0.05 513.17 0.03 512.2 0 511.25 0L511.25 0Q510.3 0 509.27 0.03 508.25 0.05 507.3 0.08 506.35 0.1 505.5 0.15ZM531.25 0.45L531.25 0.45Q527.7 0.45 525.35-1.15 523-2.75 521.82-5.48 520.65-8.2 520.65-11.45L520.65-11.45Q520.65-14.65 521.9-17.35 523.15-20.05 525.47-21.7 527.8-23.35 531-23.35L531-23.35Q534.25-23.35 536.22-21.95 538.2-20.55 539.17-18.2 540.15-15.85 540.35-13L540.35-13Q540.15-12 539.6-11.3L539.6-11.3Q538.75-11.3 537.05-11.3 535.35-11.3 533.2-11.28 531.05-11.25 528.8-11.18 526.55-11.1 524.55-11L524.55-11 524.55-13.55 535.15-13.55Q535.15-16.85 533.95-18.9 532.75-20.95 530.55-20.95L530.55-20.95Q529.35-20.95 528.2-20.23 527.05-19.5 526.3-17.68 525.55-15.85 525.55-12.5L525.55-12.5Q525.55-10.05 526.17-7.73 526.8-5.4 528.37-3.88 529.95-2.35 532.85-2.35L532.85-2.35Q534.5-2.35 536.1-3.1 537.7-3.85 538.95-5.25L538.95-5.25Q539.35-5.05 539.72-4.58 540.1-4.1 540.15-3.7L540.15-3.7Q538.45-1.45 536.22-0.5 534 0.45 531.25 0.45ZM560.09-21.6L560.09-21.6Q560.04-20.4 560.02-19.05 559.99-17.7 560.19-16.4L560.19-16.4Q559.69-16.1 559.04-15.95 558.39-15.8 557.69-15.8L557.69-15.8Q557.59-17.2 556.87-18.45 556.14-19.7 554.94-20.5 553.74-21.3 552.09-21.3L552.09-21.3Q550.54-21.3 549.62-20.55 548.69-19.8 548.69-18.55L548.69-18.55Q548.69-17.7 549.07-17.05 549.44-16.4 550.72-15.68 551.99-14.95 554.64-13.9L554.64-13.9Q557.34-12.9 558.89-11.9 560.44-10.9 561.09-9.65 561.74-8.4 561.74-6.6L561.74-6.6Q561.74-4.5 560.54-2.9 559.34-1.3 557.27-0.43 555.19 0.45 552.59 0.45L552.59 0.45Q549.59 0.45 547.82-0.03 546.04-0.5 544.34-1.4L544.34-1.4Q544.44-2.2 544.47-3.35 544.49-4.5 544.49-5.65 544.49-6.8 544.39-7.6L544.39-7.6Q544.79-7.9 545.52-8.03 546.24-8.15 546.99-8.15L546.99-8.15Q547.39-5 548.94-3.45 550.49-1.9 553.09-1.9L553.09-1.9Q555.14-1.9 556.27-2.8 557.39-3.7 557.39-5.1L557.39-5.1Q557.39-6 556.97-6.65 556.54-7.3 555.39-7.95 554.24-8.6 551.99-9.5L551.99-9.5Q549.29-10.6 547.67-11.55 546.04-12.5 545.32-13.8 544.59-15.1 544.59-17.1L544.59-17.1Q544.59-18.7 545.39-19.88 546.19-21.05 547.47-21.83 548.74-22.6 550.19-22.98 551.64-23.35 552.89-23.35L552.89-23.35Q555.14-23.35 556.84-22.9 558.54-22.45 560.09-21.6Z" opacity="1" transform="matrix(1,0,0,1,0,0)" fill="#ffffff" class="undefined-text-1" data-fill-palette-color="secondary" id="text-1"></path></svg></g></svg></g></svg></g></svg></g><g transform="matrix(1,0,0,1,102.94898046626432,0)"><svg viewBox="0 0 189.62203906747135 106.09246627540178" height="106.09246627540178" width="189.62203906747135"><g><svg xmlns="http://www.w3.org/2000/svg" xmlns:xlink="http://www.w3.org/1999/xlink" version="1.1" x="0" y="0" viewBox="1.2489986419677734 22.201997756958008 97.94200897216797 54.798004150390625" enable-background="new 0 0 100 100" xml:space="preserve" height="106.09246627540178" width="189.62203906747135" class="icon-icon-0" data-fill-palette-color="accent" id="icon-0"><path d="M89.777 48.451l1.267-0.957c0 0-3.817-1.918-6.47-1.74-1.257 0.084-2.37 0.385-3.364 0.844 6.25-4.389 10.231-3.018 11.55-4.783 1.012-1.357-3.632-6.779-7.121-10.726-1.367-1.546-3.268-3.169-5.072-4.571 0.014-0.481-0.023-2.968-2.217-4.316l-1.229 1.791c-1.16-0.806-1.934-1.3-1.934-1.3s-7.137 2.509-6.106 3.453c0.948 0.869 8.679 3.264 11.084 6.022l-1.48 1.922 0.98 1.029c0 0 0.567-0.505 0.738 0.281 0.232 1.063-1.749 0.403-1.749 0.403l-1.715-1.881v-3.299H73.93l-0.834-0.914c0 0-4.189 0.457-4.662 1.788-0.286 0.643 0.365 2.86 0.365 2.86l-0.728 0.025c-0.065-0.262-0.25-0.616-0.712-0.923-0.283-0.189-1.906-0.928-4.13-1.748-0.061-0.39-0.303-0.713-0.659-0.819l-1.054-0.312c-0.314-0.093-0.646 0.005-0.902 0.231-3.489-1.114-7.598-2.063-10.458-1.665-0.967 0.23-5.183 0.704-7.597 6.137l-10.14 0.358c-2.146-0.419-4.425-1.172-6.544-2.473-0.574-0.352-0.893-0.212-1.075 0.018-0.583-0.668-1.071-1.343-1.409-2.005 0.173 0.02 0.3 0.021 0.37 0.001 0.669-0.418 1.341-3.624 0.569-3.708-0.771-0.086-14.027-1.573-14.586-1.63-0.33-0.034-0.823 0.226-0.792 0.596l-4.056-0.275 1.623 2.647c-2.326 0.406-2.952 1.214-2.952 1.214H2.108V31.4l0.911 1.594 6.983 3.126-0.3 0.558-6.307 0.601v0.59l1.201 0.868v1.287h0.772l0.944-1.287h1.458c0 0-2.741 2.477-2.87 2.477-0.187 0-1.356 0-1.356 0L1.25 46.63l1.501-0.386 0.772-1.673h0.729l8.624-7.292 7.77 1.56c0.759 0.641 2.044 1.317 4.172 1.94 4.14 1.211 4.14 1.211 4.14 1.211l-2.269 1.769-4.517-0.906 1.815 3.246 6.564 3.904-2.122 1.517c-2.832-3.309-7.039-5.406-11.736-5.406-8.53 0-15.444 6.914-15.444 15.445C1.25 70.086 8.165 77 16.694 77c7.856 0 14.342-5.867 15.317-13.459 0.976-0.32 2.038-0.668 3.199-1.045l1.077 2.881-1.403 0.549-2.599 3.604h37.137c0 0 0-0.027 0.002-0.074l0.017-0.623c0.058-1.969 0.244-7.549 0.555-9.201 0.221-1.174 0.616-2.146 1.131-3.01-0.681 1.684-1.061 3.523-1.061 5.453 0 8.043 6.521 14.562 14.562 14.562 8.044 0 14.563-6.52 14.563-14.562C99.191 55.846 95.278 50.532 89.777 48.451zM84.887 36.898c0.747 0.095 2.139 0.595 3.812 0.639 2.59 0.066 3.635 2.862 3.381 3.673-0.265 0.846-1.903 0.697-3.181 0.516C86.644 41.408 83.956 36.781 84.887 36.898zM18.645 51.838c0.04-0.104 0.085-0.195 0.135-0.277 2.123 0.406 4.003 1.496 5.399 3.035l-0.551 0.393-4.176 0.086v-0.129h-1.61C17.991 53.887 18.259 52.852 18.645 51.838zM19.892 56.543c-0.116-0.07-0.174 0.057-0.252 0.102-0.064 0.039-0.127 0.053-0.187 0.053v-0.764l2.94-0.061-1.727 1.232c-0.007-0.01-0.013-0.018-0.022-0.027-0.06-0.059-0.131-0.074-0.208-0.041-0.048 0.02-0.091 0.051-0.141 0.068-0.214 0.068-0.374-0.049-0.349-0.262C19.958 56.736 20.014 56.617 19.892 56.543zM16.794 60.781c0.306 0.002 0.577 0.295 0.572 0.617-0.004 0.332-0.297 0.594-0.652 0.584-0.273-0.008-0.531-0.303-0.528-0.609C16.189 61.027 16.444 60.777 16.794 60.781zM10.177 67.713c-0.121 0.078-0.239 0.133-0.353 0.166-0.389 0.115-0.735-0.031-1.03-0.426-0.68-0.91-1.206-1.875-1.571-2.902l0.722-0.322L7.726 63.74l-0.669 0.301c-0.23-0.773-0.372-1.58-0.418-2.42-0.017-0.322-0.017-0.639 0.009-0.955C6.678 60.281 6.901 60 7.239 59.893c0.069-0.021 0.141-0.039 0.218-0.047 0.326-0.027 0.652-0.055 0.868-0.045 1.047 0.008 2.04 0.119 3.003 0.314-0.044 0.246-0.08 0.502-0.097 0.773-0.127 1.932 0.339 3.484 1.383 4.611 0.033 0.033 0.068 0.064 0.101 0.1C11.958 66.391 11.119 67.102 10.177 67.713zM11.812 58.605c-1.113-0.508-2.156-1.152-3.136-1.92-0.116-0.092-0.209-0.188-0.281-0.289 1.406-2.512 3.888-4.338 6.822-4.857 0.04 0.061 0.076 0.127 0.106 0.202 0.41 1.035 0.682 2.106 0.846 3.204h-0.467v0.553C14.372 55.92 12.691 56.799 11.812 58.605zM16.935 70.947c-1.461 0-2.845-0.322-4.09-0.896-0.003-0.08 0-0.162 0.018-0.248 0.15-0.736 0.414-1.438 0.702-2.129 0.154-0.369 0.323-0.73 0.503-1.084 0.22 0.115 0.44 0.213 0.662 0.299 0.021 0.008 0.043 0.016 0.064 0.023 0.272 0.102 0.542 0.184 0.802 0.248 0.039 0.012 0.078 0.02 0.117 0.029 0.76 0.176 1.436 0.217 1.847 0.221 0.104 0.002 0.205 0.002 0.305 0.002 0.889 0 1.63-0.045 2.431-0.174 0.331 0.715 0.6 1.455 0.817 2.217 0.048 0.17 0.087 0.34 0.083 0.518C19.908 70.598 18.462 70.947 16.935 70.947zM24.123 67.797c-0.074-0.023-0.147-0.053-0.219-0.096-0.482-0.283-0.925-0.623-1.355-0.979 0.823-0.232 1.791-0.537 3.003-0.932C25.16 66.52 24.68 67.195 24.123 67.797zM26.043 64.727c-1.887 0.623-3.206 1.041-4.263 1.32-0.161-0.152-0.32-0.305-0.474-0.463 0.043-0.002 0.083-0.016 0.118-0.057 0.072-0.088-0.015-0.16-0.051-0.236-0.012-0.025-0.027-0.051-0.038-0.078-0.086-0.219 0.048-0.389 0.282-0.354 0.069 0.01 0.136 0.031 0.205 0.039 0.121 0.014 0.164-0.047 0.108-0.156-0.044-0.088-0.108-0.166-0.147-0.256-0.066-0.154 0.029-0.311 0.196-0.33 0.052-0.006 0.104-0.002 0.156 0.002 0.164 0.008 0.241-0.107 0.166-0.254-0.021-0.041-0.054-0.076-0.082-0.113-0.07-0.092-0.116-0.189-0.063-0.305 0.051-0.111 0.151-0.133 0.261-0.137 0.087-0.004 0.187-0.006 0.221-0.104 0.037-0.105-0.053-0.158-0.122-0.207-0.115-0.082-0.117-0.195-0.1-0.312 0.017-0.109 0.096-0.17 0.197-0.197 0.084-0.023 0.179-0.033 0.198-0.139 0.021-0.115-0.082-0.141-0.151-0.186-0.109-0.072-0.167-0.148-0.177-0.225 1.359-0.223 2.814-0.455 4.229-0.68C26.696 62.51 26.459 63.662 26.043 64.727zM30.793 42.912c0.086-0.022 1.668 0.451 1.668 0.451l-5.916 2.66L30.793 42.912zM32.102 62.609c0.023-0.35 0.036-0.701 0.036-1.053 0-0.34-0.012-0.674-0.033-1.006 1.371-0.215 2.249-0.348 2.249-0.348l0.556 1.488C33.901 62.018 32.968 62.324 32.102 62.609zM34.998 57.605l-2.972 0.525c-0.183-0.844-0.438-1.658-0.752-2.441l5.384-0.113L34.998 57.605zM31.978 54.815l2.333-1.114c0.012 0.047 0.729 0.57 1.38 1.038L31.978 54.815zM37.549 51.385l-10.253-4.247 6.194-2.896c0 0 3.888 4.226 4.059 4.956C37.722 49.927 37.549 51.385 37.549 51.385zM41.561 47.138l-1.566-1.352-1.63 1.352-1.062-1.641 1.062-1.062 3.196 1.073V47.138zM51.696 57.199c-2.038 0.584-4.164-0.596-4.748-2.635s0.596-4.165 2.634-4.748c0.029-0.008 0.057-0.014 0.086-0.022 0.003 0.008 0.007 0.015 0.01 0.022-1.801 0.725-2.802 2.705-2.256 4.613 0.561 1.957 2.546 3.123 4.509 2.691C51.854 57.15 51.776 57.176 51.696 57.199zM56.766 59.775c-1.032 0.627-2.378 0.295-3.003-0.738s-0.295-2.377 0.739-3.002c0.041-0.025 0.081-0.047 0.123-0.068-0.94 0.652-1.222 1.932-0.621 2.924 0.601 0.994 1.864 1.338 2.88 0.809C56.845 59.727 56.807 59.752 56.766 59.775zM60.312 54.615l-7.608-4.29 13.386 4.29H60.312zM71.844 44.612c0 0-7.88 4.931-10.574 5.083-1.335 0.122-2.768-0.58-3.196-0.794-0.43-0.213 0-0.493 0-0.493L68.86 43.27c0 0 2.532 0.182 3.263 0.591C72.632 44.146 71.844 44.612 71.844 44.612zM86.979 52.876c0.08-0.188 0.179-0.336 0.295-0.446 2.833 0.715 5.175 2.658 6.424 5.232-0.066 0.107-0.155 0.209-0.274 0.297-0.8 0.596-1.657 1.09-2.558 1.506-0.832-1.98-2.605-3.467-4.76-3.9C86.312 54.649 86.606 53.754 86.979 52.876zM84.817 61.512c0.307 0.002 0.576 0.295 0.572 0.617-0.005 0.332-0.297 0.594-0.651 0.584-0.274-0.008-0.532-0.305-0.529-0.609C84.211 61.756 84.467 61.508 84.817 61.512zM83.472 52.233c0.069 0.081 0.127 0.179 0.168 0.29 0.113 0.305 0.222 0.611 0.268 0.82 0.187 0.713 0.317 1.414 0.401 2.111-0.312 0.021-0.616 0.066-0.914 0.131l-1.288-3.057C82.55 52.399 83.005 52.3 83.472 52.233zM77.97 68.066c-0.153 0.092-0.309 0.176-0.484 0.217-0.029 0.008-0.058 0.012-0.086 0.016-1.458-1.713-2.34-3.932-2.34-6.357 0-0.547 0.047-1.084 0.133-1.607 0.095-0.039 0.2-0.062 0.316-0.07 0.487-0.029 0.973-0.01 1.456 0.035l-0.258 0.824-0.688 0.818 0.516 2.227 1.987-0.186c0.307 0.979 0.839 1.859 1.533 2.582C79.406 67.125 78.708 67.623 77.97 68.066zM78.508 55.967l-1.269 1.553c-0.143-0.117-0.284-0.238-0.425-0.363-0.132-0.119-0.229-0.242-0.29-0.369 0.869-1.406 2.085-2.574 3.526-3.389l1.276 3.027c-0.39 0.242-0.752 0.525-1.081 0.842L78.508 55.967zM88.565 71.029c-1.142 0.465-2.388 0.723-3.696 0.723-0.042 0-0.084-0.002-0.126-0.002v-0.723h-0.534v0.699c-1.393-0.092-2.706-0.475-3.88-1.088-0.008-0.115 0.004-0.232 0.036-0.354 0.161-0.582 0.396-1.139 0.649-1.686 0.144-0.311 0.299-0.615 0.461-0.912 0.976 0.572 2.111 0.9 3.324 0.9 1.039 0 2.021-0.242 2.896-0.67 0.264 0.605 0.487 1.234 0.661 1.896 0.062 0.305 0.19 0.639 0.218 0.998C88.581 70.887 88.575 70.959 88.565 71.029zM91.683 68.996c-0.123-0.035-0.251-0.1-0.385-0.191-0.787-0.545-1.49-1.18-2.129-1.879 1.354-1.205 2.208-2.959 2.208-4.914 0-0.287-0.021-0.57-0.057-0.848 0.948-0.096 1.903-0.098 2.867-0.002 0.186 0.018 0.339 0.062 0.467 0.127 0.016 0.217 0.025 0.434 0.025 0.652C94.68 64.713 93.529 67.213 91.683 68.996z" fill="#ffffff" data-fill-palette-color="accent"></path></svg></g></svg></g><g></g></svg></g><defs></defs></svg><rect width="395.52" height="193.4878122601418" fill="none" stroke="none" visibility="hidden"></rect></g></svg></g></svg>